# xmcd
#
# Track frame offsets:
#	150
#	13427
#	28882
#	48001
#	62450
#	87132
#	100602
#	122166
#	136747
#	155220
#	172497
#	186526
#
# Disc length: 2743 seconds
#
# Revision: 0
# Processed by: cddbd v1.5.2PL0 Copyright (c) Steve Scherf et al.
# Submitted via: EasyCDDAExtractor 10.0.2.1
#
DISCID=a70ab50c
DTITLE=VVAA - LA MAMMA
DYEAR=1900
DGENRE=
TTITLE0=EVVIVA IL MIO PAPA
TTITLE1=DANZA COME SAI DANZARE TU..
TTITLE2=MAMMA MIA CHE VÒ SAPÈ!
TTITLE3=GIGOLÒ
TTITLE4=E VANNO..
TTITLE5=MAMMA
TTITLE6=IERI HO INCONTRATO MIA MADRE
TTITLE7=BALOCCHI E PROFUMI
TTITLE8=MAMY BLUE
TTITLE9=SIGNORA FORTUNA
TTITLE10=QUANTO È BELLA LEI
TTITLE11=IO BEVO!..
EXTD=
EXTT0=
EXTT1=
EXTT2=
EXTT3=
EXTT4=
EXTT5=
EXTT6=
EXTT7=
EXTT8=
EXTT9=
EXTT10=
EXTT11=
PLAYORDER=
